<?xml version="1.0" standalone="no"?>
<!DOCTYPE svg PUBLIC "-//W3C//DTD SVG 20010904//EN"
 "http://www.w3.org/TR/2001/REC-SVG-20010904/DTD/svg10.dtd">
<svg version="1.0" xmlns="http://www.w3.org/2000/svg"
 width="300.000000pt" height="300.000000pt" viewBox="0 0 300.000000 300.000000"
 preserveAspectRatio="xMidYMid meet">
<metadata>
Created by potrace 1.10, written by Peter Selinger 2001-2011
</metadata>
<g transform="translate(0.000000,300.000000) scale(0.100000,-0.100000)"
fill="#000000" stroke="none">
<path d="M0 1500 l0 -1500 1500 0 1500 0 0 1500 0 1500 -1500 0 -1500 0 0
-1500z m2990 0 l0 -1490 -1490 0 -1490 0 0 1490 0 1490 1490 0 1490 0 0 -1490z"/>
<path d="M144 1711 c-2 -2 -4 -15 -4 -28 l0 -23 154 0 c139 0 155 -2 158 -17
2 -10 2 -26 0 -35 -4 -16 -20 -18 -156 -18 l-151 0 0 -90 0 -90 28 0 28 0 -2
63 -3 62 136 3 c157 3 168 9 171 86 3 78 -10 84 -196 88 -87 2 -161 1 -163 -1z"/>
<path d="M735 1713 c-184 -4 -185 -5 -185 -110 0 -71 1 -73 25 -73 24 0 25 3
25 60 0 47 4 61 18 69 10 5 78 8 155 5 l137 -4 0 30 c0 19 -5 29 -12 28 -7 -1
-80 -4 -163 -5z"/>
<path d="M970 1655 c0 -37 4 -65 10 -65 6 0 10 24 10 53 l0 52 45 -3 c36 -3
45 -8 45 -23 0 -15 -7 -19 -35 -19 -24 0 -35 -5 -35 -15 0 -22 56 -19 80 5 24
24 24 29 4 58 -12 18 -25 22 -70 22 l-54 0 0 -65z"/>
<path d="M1150 1655 l0 -65 60 0 c33 0 60 4 60 10 0 6 -23 10 -51 10 l-50 0 3
42 3 42 48 -3 c37 -2 47 1 47 13 0 13 -12 16 -60 16 l-60 0 0 -65z"/>
<path d="M1320 1704 c0 -10 7 -14 23 -12 20 3 22 -1 22 -50 0 -35 4 -52 13
-52 8 0 12 17 12 54 0 51 1 53 25 48 18 -3 25 0 25 12 0 13 -11 16 -60 16 -48
0 -60 -3 -60 -16z"/>
<path d="M1490 1655 l0 -65 60 0 c33 0 60 4 60 10 0 6 -23 10 -51 10 l-50 0 3
42 3 42 48 -3 c37 -2 47 1 47 13 0 13 -12 16 -60 16 l-60 0 0 -65z"/>
<path d="M1640 1655 c0 -51 3 -65 15 -65 11 0 15 13 15 53 l0 52 45 -3 c36 -3
45 -8 45 -23 0 -10 -6 -19 -12 -20 -7 -1 -22 -2 -33 -2 -29 -3 -30 -21 -1 -25
13 -2 30 -10 36 -18 7 -8 20 -14 28 -14 15 0 15 2 0 16 -15 15 -15 19 -1 40
14 22 14 26 -1 49 -15 22 -24 25 -76 25 l-60 0 0 -65z"/>
<path d="M1832 1708 c-32 -32 2 -68 65 -68 68 0 51 -24 -20 -28 -31 -2 -57 -7
-57 -13 0 -6 27 -9 68 -7 l67 3 0 30 c0 29 -2 30 -50 35 -35 3 -50 9 -50 20 0
11 12 13 53 11 42 -2 52 1 52 13 0 13 -12 16 -58 16 -32 0 -63 -5 -70 -12z"/>
<path d="M2042 1698 c-6 -13 -23 -42 -37 -65 -21 -35 -23 -43 -10 -43 8 0 25
20 37 45 24 50 32 54 48 25 9 -17 8 -20 -9 -20 -11 0 -23 -4 -26 -10 -4 -6 8
-10 28 -10 22 0 37 -6 41 -15 3 -8 12 -15 20 -15 11 0 3 19 -25 65 -23 36 -45
65 -49 65 -4 0 -12 -10 -18 -22z"/>
<path d="M2181 1694 c-24 -31 -25 -37 -10 -67 17 -32 28 -37 87 -37 l52 0 0
35 c0 33 -2 35 -35 35 -19 0 -37 0 -40 0 -3 0 -4 -3 -2 -7 1 -5 12 -8 25 -8
15 1 22 -5 22 -17 0 -14 -8 -18 -34 -18 -39 0 -59 19 -54 52 3 20 9 23 56 26
37 2 52 7 52 18 0 10 -13 14 -49 14 -42 0 -53 -4 -70 -26z"/>
<path d="M2340 1655 c0 -37 4 -65 10 -65 6 0 10 21 10 47 l0 47 48 -47 c26
-26 51 -47 55 -47 4 0 7 29 7 65 0 37 -4 65 -10 65 -5 0 -10 -21 -10 -47 l0
-47 -48 47 c-26 26 -51 47 -55 47 -4 0 -7 -29 -7 -65z"/>
<path d="M2560 1655 c0 -51 3 -65 15 -65 12 0 15 14 15 65 0 51 -3 65 -15 65
-12 0 -15 -14 -15 -65z"/>
<path d="M2701 1654 c-32 -50 -37 -65 -24 -62 10 2 28 22 41 46 19 35 27 41
38 31 20 -16 17 -29 -6 -29 -11 0 -20 -4 -20 -10 0 -5 13 -10 30 -10 16 0 33
-7 38 -16 5 -9 14 -15 20 -13 11 4 -56 128 -69 129 -4 0 -25 -30 -48 -66z"/>
<path d="M1218 1663 c-40 -6 -34 -23 7 -23 24 0 35 5 35 15 0 8 -3 14 -7 14
-5 -1 -20 -4 -35 -6z"/>
<path d="M1558 1663 c-40 -6 -34 -23 7 -23 24 0 35 5 35 15 0 8 -3 14 -7 14
-5 -1 -20 -4 -35 -6z"/>
<path d="M698 1636 c3 -5 -2 -7 -10 -3 -16 6 -48 -21 -48 -39 0 -5 5 -2 10 6
7 11 8 5 4 -18 l-7 -33 32 18 c37 22 39 31 6 39 -14 3 -22 10 -20 15 3 4 20
-1 38 -11 41 -26 47 -25 47 5 0 14 3 25 8 25 4 0 6 -18 4 -40 -4 -41 4 -50 26
-28 16 16 15 23 -4 42 -8 9 -11 16 -5 16 11 0 31 -31 31 -48 0 -5 -16 -17 -35
-28 -32 -17 -34 -20 -18 -31 24 -18 32 -16 43 10 6 14 9 16 9 6 1 -9 -7 -23
-17 -32 -16 -14 -19 -14 -42 3 -33 26 -40 25 -40 -5 0 -14 -4 -25 -8 -25 -5 0
-7 19 -5 41 5 44 7 43 -44 22 -6 -2 -13 4 -16 14 -2 10 -3 5 0 -12 5 -43 35
-68 82 -69 21 -1 37 3 33 8 -3 5 2 7 11 3 26 -10 57 30 57 74 0 55 -27 82 -83
83 -25 1 -43 -3 -39 -8z"/>
<path d="M860 1541 c0 -84 7 -81 -161 -81 l-149 0 0 -25 0 -25 159 0 160 0 20
26 c16 21 21 41 21 90 0 62 -1 64 -25 64 -23 0 -25 -3 -25 -49z"/>
<path d="M970 1474 c0 -54 3 -75 12 -72 8 3 11 24 9 61 l-2 57 50 0 c39 0 51
4 51 15 0 12 -13 15 -60 15 l-60 0 0 -76z"/>
<path d="M1450 1475 c0 -52 4 -75 11 -73 7 2 11 31 11 73 0 42 -4 71 -11 73
-7 2 -11 -21 -11 -73z"/>
<path d="M1837 1543 c-4 -3 -7 -35 -7 -70 l0 -63 65 0 c37 0 65 4 65 10 0 6
-22 10 -50 10 l-50 0 0 60 c0 55 -6 70 -23 53z"/>
<path d="M2246 1480 c-10 -39 -16 -74 -12 -77 10 -10 17 2 31 54 14 53 11 54
44 -31 14 -35 32 -24 51 34 15 47 25 44 34 -9 3 -21 13 -41 21 -45 18 -7 18
-6 -4 73 -10 36 -22 66 -28 68 -6 2 -19 -19 -29 -47 -10 -27 -21 -50 -24 -50
-3 0 -16 23 -27 50 -12 28 -25 50 -30 50 -5 0 -17 -32 -27 -70z"/>
<path d="M2706 1537 c-11 -8 -17 -23 -14 -38 3 -21 9 -25 58 -29 42 -4 56 -9
58 -22 3 -16 -5 -18 -57 -18 -34 0 -61 -4 -61 -10 0 -6 28 -10 65 -10 53 0 66
3 75 19 13 25 13 27 -6 45 -10 10 -33 16 -65 16 -37 0 -49 4 -49 15 0 12 13
15 60 15 47 0 60 3 60 15 0 19 -98 21 -124 2z"/>
<path d="M1010 1475 c0 -10 11 -15 35 -15 24 0 35 5 35 15 0 10 -11 15 -35 15
-24 0 -35 -5 -35 -15z"/>
</g>
</svg>
